<svg width="15" height="15" viewBox="0 0 15 15" fill="none" xmlns="http://www.w3.org/2000/svg">
<path d="M7.5 0.75C11.3555 0.75 14.5 3.89453 14.5 7.75C14.5 11.6328 11.3555 14.75 7.5 14.75C3.61719 14.75 0.5 11.6328 0.5 7.75C0.5 3.89453 3.61719 0.75 7.5 0.75ZM7.5 13.4375C10.6172 13.4375 13.1875 10.8945 13.1875 7.75C13.1875 4.63281 10.6172 2.0625 7.5 2.0625C4.35547 2.0625 1.8125 4.63281 1.8125 7.75C1.8125 10.8945 4.35547 13.4375 7.5 13.4375ZM8.59375 9.9375C8.94922 9.9375 9.25 10.2383 9.25 10.5938C9.25 10.9766 8.94922 11.25 8.59375 11.25H6.40625C6.02344 11.25 5.75 10.9766 5.75 10.5938C5.75 10.2383 6.02344 9.9375 6.40625 9.9375H6.84375V8.1875H6.625C6.24219 8.1875 5.96875 7.91406 5.96875 7.53125C5.96875 7.17578 6.24219 6.875 6.625 6.875H7.5C7.85547 6.875 8.15625 7.17578 8.15625 7.53125V9.9375H8.59375ZM7.5 6C7.00781 6 6.625 5.61719 6.625 5.125C6.625 4.66016 7.00781 4.25 7.5 4.25C7.96484 4.25 8.375 4.66016 8.375 5.125C8.375 5.61719 7.96484 6 7.5 6Z" fill="#8A97AB"/>
</svg>
