<svg width="24" height="24" viewBox="0 0 24 24" fill="none" xmlns="http://www.w3.org/2000/svg">
<path d="M12.3467 23.9199C18.709 23.9199 23.8667 18.7622 23.8667 12.3999C23.8667 6.03756 18.709 0.879883 12.3467 0.879883C5.9844 0.879883 0.826721 6.03756 0.826721 12.3999C0.826721 18.7622 5.9844 23.9199 12.3467 23.9199Z" fill="#F0F0F0"/>
<path d="M11.8463 12.4007H23.8671C23.8671 11.361 23.7285 10.3537 23.4702 9.39551H11.8463V12.4007Z" fill="#D80027"/>
<path d="M11.8463 6.39H22.1763C21.4711 5.23926 20.5694 4.22213 19.5181 3.38477H11.8463V6.39Z" fill="#D80027"/>
<path d="M12.3479 23.9204C15.0591 23.9204 17.5511 22.9833 19.5189 21.416H5.17688C7.14473 22.9833 9.63669 23.9204 12.3479 23.9204Z" fill="#D80027"/>
<path d="M2.51834 18.4105H22.1767C22.7428 17.4867 23.1819 16.4769 23.4707 15.4053H1.22437C1.51313 16.4769 1.9522 17.4867 2.51834 18.4105Z" fill="#D80027"/>
<path d="M6.163 2.67889H7.21281L6.23631 3.38832L6.60931 4.53622L5.63286 3.8268L4.6564 4.53622L4.9786 3.54456C4.11883 4.26073 3.36526 5.0998 2.74426 6.03472H3.08064L2.45905 6.4863C2.36221 6.64785 2.26933 6.81196 2.18032 6.97851L2.47714 7.89205L1.92337 7.48971C1.78572 7.78135 1.65981 8.07957 1.54663 8.38399L1.87365 9.39055H3.08064L2.10414 10.1L2.47714 11.2479L1.50069 10.5385L0.915776 10.9634C0.857231 11.434 0.826721 11.9134 0.826721 12.3999H12.3467C12.3467 6.0376 12.3467 5.28754 12.3467 0.879883C10.071 0.879883 7.94955 1.54003 6.163 2.67889ZM6.60931 11.2479L5.63286 10.5385L4.6564 11.2479L5.02941 10.1L4.05291 9.39055H5.2599L5.63286 8.24265L6.00582 9.39055H7.21281L6.23631 10.1L6.60931 11.2479ZM6.23631 6.74415L6.60931 7.89205L5.63286 7.18263L4.6564 7.89205L5.02941 6.74415L4.05291 6.03472H5.2599L5.63286 4.88682L6.00582 6.03472H7.21281L6.23631 6.74415ZM10.7415 11.2479L9.76503 10.5385L8.78857 11.2479L9.16158 10.1L8.18508 9.39055H9.39207L9.76503 8.24265L10.138 9.39055H11.345L10.3685 10.1L10.7415 11.2479ZM10.3685 6.74415L10.7415 7.89205L9.76503 7.18263L8.78857 7.89205L9.16158 6.74415L8.18508 6.03472H9.39207L9.76503 4.88682L10.138 6.03472H11.345L10.3685 6.74415ZM10.3685 3.38832L10.7415 4.53622L9.76503 3.8268L8.78857 4.53622L9.16158 3.38832L8.18508 2.67889H9.39207L9.76503 1.53099L10.138 2.67889H11.345L10.3685 3.38832Z" fill="#0052B4"/>
</svg>
