<svg width="20" height="20" viewBox="0 0 20 20" fill="none" xmlns="http://www.w3.org/2000/svg">
<path d="M6.75781 16.0469C6.75781 15.9688 6.67969 15.8906 6.5625 15.8906C6.44531 15.8906 6.36719 15.9688 6.36719 16.0469C6.36719 16.125 6.44531 16.2031 6.5625 16.1641C6.67969 16.1641 6.75781 16.125 6.75781 16.0469ZM5.54688 15.8516C5.58594 15.7734 5.70312 15.7344 5.82031 15.7734C5.9375 15.8125 5.97656 15.8906 5.97656 15.9688C5.9375 16.0469 5.82031 16.0859 5.74219 16.0469C5.625 16.0469 5.54688 15.9297 5.54688 15.8516ZM7.30469 15.8125C7.38281 15.7734 7.5 15.8516 7.5 15.9297C7.53906 16.0078 7.46094 16.0469 7.34375 16.0859C7.22656 16.125 7.10938 16.0859 7.10938 16.0078C7.10938 15.8906 7.1875 15.8125 7.30469 15.8125ZM9.84375 0.8125C15.2734 0.8125 19.6875 4.95312 19.6875 10.3438C19.6875 14.6797 17.0312 18.3906 13.125 19.6797C12.6172 19.7969 12.4219 19.4844 12.4219 19.2109C12.4219 18.8984 12.4609 17.2578 12.4609 15.9688C12.4609 15.0312 12.1484 14.4453 11.7969 14.1328C13.9844 13.8984 16.2891 13.5859 16.2891 9.83594C16.2891 8.74219 15.8984 8.23438 15.2734 7.53125C15.3516 7.25781 15.7031 6.24219 15.1562 4.875C14.3359 4.60156 12.4609 5.92969 12.4609 5.92969C11.6797 5.69531 10.8594 5.61719 10 5.61719C9.17969 5.61719 8.35938 5.69531 7.57812 5.92969C7.57812 5.92969 5.66406 4.64062 4.88281 4.875C4.33594 6.24219 4.64844 7.25781 4.76562 7.53125C4.14062 8.23438 3.82812 8.74219 3.82812 9.83594C3.82812 13.5859 6.05469 13.8984 8.24219 14.1328C7.92969 14.4062 7.69531 14.8359 7.61719 15.4609C7.03125 15.7344 5.625 16.1641 4.76562 14.6406C4.21875 13.7031 3.24219 13.625 3.24219 13.625C2.30469 13.625 3.20312 14.25 3.20312 14.25C3.82812 14.5234 4.25781 15.6562 4.25781 15.6562C4.84375 17.4141 7.57812 16.8281 7.57812 16.8281C7.57812 17.6484 7.57812 18.9766 7.57812 19.25C7.57812 19.4844 7.42188 19.7969 6.91406 19.7188C3.00781 18.3906 0.3125 14.6797 0.3125 10.3438C0.3125 4.95312 4.45312 0.8125 9.84375 0.8125ZM4.10156 14.2891C4.14062 14.25 4.21875 14.2891 4.29688 14.3281C4.375 14.4062 4.375 14.5234 4.33594 14.5625C4.25781 14.6016 4.17969 14.5625 4.10156 14.5234C4.0625 14.4453 4.02344 14.3281 4.10156 14.2891ZM3.67188 13.9766C3.71094 13.9375 3.75 13.9375 3.82812 13.9766C3.90625 14.0156 3.94531 14.0547 3.94531 14.0938C3.90625 14.1719 3.82812 14.1719 3.75 14.1328C3.67188 14.0938 3.63281 14.0547 3.67188 13.9766ZM4.92188 15.3828C5 15.3047 5.11719 15.3438 5.19531 15.4219C5.27344 15.5 5.27344 15.6172 5.23438 15.6562C5.19531 15.7344 5.07812 15.6953 5 15.6172C4.88281 15.5391 4.88281 15.4219 4.92188 15.3828ZM4.49219 14.7969C4.57031 14.7578 4.64844 14.7969 4.72656 14.875C4.76562 14.9531 4.76562 15.0703 4.72656 15.1094C4.64844 15.1484 4.57031 15.1094 4.49219 15.0312C4.41406 14.9531 4.41406 14.8359 4.49219 14.7969Z" fill="#01A1B0"/>
</svg>
