<svg width="24" height="24" viewBox="0 0 24 24" fill="none" xmlns="http://www.w3.org/2000/svg">
<path d="M11.9458 23.8671C18.3081 23.8671 23.4658 18.7095 23.4658 12.3471C23.4658 5.98483 18.3081 0.827148 11.9458 0.827148C5.58346 0.827148 0.425781 5.98483 0.425781 12.3471C0.425781 18.7095 5.58346 23.8671 11.9458 23.8671Z" fill="#F0F0F0"/>
<path d="M22.7492 8.34082H1.14232C0.679221 9.58881 0.425781 10.9386 0.425781 12.3478C0.425781 13.7569 0.679221 15.1067 1.14232 16.3547H22.7493C23.2123 15.1067 23.4658 13.7569 23.4658 12.3478C23.4658 10.9386 23.2123 9.58881 22.7492 8.34082Z" fill="#0052B4"/>
<path d="M11.9466 0.827148C8.45502 0.827148 5.32648 2.38073 3.21387 4.83408H20.6793C18.5667 2.38073 15.4382 0.827148 11.9466 0.827148Z" fill="#D80027"/>
<path d="M20.6794 19.8604H3.21387C5.32648 22.3137 8.45502 23.8673 11.9466 23.8673C15.4382 23.8673 18.5667 22.3137 20.6794 19.8604Z" fill="#D80027"/>
</svg>
