<svg width="160" height="161" viewBox="0 0 160 161" fill="none" xmlns="http://www.w3.org/2000/svg">
<g clip-path="url(#clip0_4059_13603)">
<path d="M80 160.5C124.183 160.5 160 124.683 160 80.5C160 36.3172 124.183 0.5 80 0.5C35.8172 0.5 0 36.3172 0 80.5C0 124.683 35.8172 160.5 80 160.5Z" fill="#F4F8FD"/>
<g clip-path="url(#clip1_4059_13603)">
<path opacity="0.4" d="M80 138.5C110.928 138.5 136 136.709 136 134.5C136 132.291 110.928 130.5 80 130.5C49.0721 130.5 24 132.291 24 134.5C24 136.709 49.0721 138.5 80 138.5Z" fill="#B2BAC8"/>
<path d="M127.977 134.684H32.34C31.439 134.684 30.5749 134.328 29.9379 133.695C29.3008 133.062 28.9429 132.204 28.9429 131.309V78.0156H131.377V131.309C131.377 131.752 131.289 132.191 131.118 132.601C130.947 133.011 130.697 133.383 130.381 133.696C130.065 134.01 129.69 134.258 129.278 134.428C128.865 134.597 128.423 134.684 127.977 134.684Z" fill="#01A1B0"/>
<path d="M28.9399 78.0127L77.5469 39.3261C78.2848 38.7395 79.2017 38.4199 80.1467 38.4199C81.0917 38.4199 82.0086 38.7395 82.7465 39.3261L131.386 78.0156L28.9399 78.0127Z" fill="#01A1B0"/>
<path d="M28.9399 78.0156L77.4826 118.542C78.2309 119.169 79.1782 119.513 80.1569 119.513C81.1357 119.513 82.083 119.169 82.8313 118.542L131.386 78.0098H80.1803L28.9399 78.0156Z" fill="#01818D"/>
<path d="M108.665 34.1729H33.7063V57.1075H108.665V34.1729Z" fill="#ECEDEF"/>
<path d="M77.4825 118.542C78.2308 119.169 79.1781 119.512 80.1569 119.512C81.1356 119.512 82.0829 119.169 82.8312 118.542L117.651 89.4738V44.1953H42.6775V89.4826L77.4825 118.542Z" fill="white"/>
<path d="M77.4824 114.51L42.6628 85.4424V89.4828L77.4824 118.551C78.2308 119.178 79.178 119.521 80.1568 119.521C81.1356 119.521 82.0829 119.178 82.8312 118.551L117.651 89.4828V85.4424L82.8312 114.51C82.0821 115.135 81.1351 115.478 80.1568 115.478C79.1785 115.478 78.2315 115.135 77.4824 114.51Z" fill="#D7DDE5"/>
<path d="M33.7063 57.1073L42.6745 44.1982V57.1073H33.7063Z" fill="#D7DDE5"/>
<path d="M26.9254 126.062C23.3495 124.034 20.0206 121.631 16.9967 118.897C12.6311 115.078 9.65215 109.997 8.48061 104.372C5.70726 87.8734 23.9276 82.6628 37.3998 85.3207C42.9328 86.5464 48.2827 88.3955 53.3412 90.8305C58.3648 92.9867 68.7143 96.0191 74 97.5235C84.9581 101.004 91.1045 102.188 102.621 103.433C113.772 104.503 127.592 103.185 137.465 97.5235C145.254 93.0623 152.148 82.9999 148 71.4999C147.046 68.8554 140.832 61.153 139 58.9999" stroke="#30384B" stroke-linecap="round" stroke-linejoin="round" stroke-dasharray="5.09 5.09"/>
</g>
<path d="M153 28.1356L136.647 37.892L135.821 57.5503L126.749 46.0067L112.871 56.0325L95 11.5L153 28.1356Z" fill="#01A1B0"/>
<path d="M136.647 37.8925L136.249 47.2599L135.822 57.5508L126.749 46.0072L129.242 44.0918L110.768 22.873L136.647 37.8925Z" fill="#01818D"/>
<path opacity="0.3" d="M136.249 49.7482L136.027 52.6768L135.821 57.5508L126.749 46.0072L129.242 44.0918L110.768 22.873L136.249 49.7482Z" fill="#004046"/>
<path d="M129.242 44.0918L135.822 57.5507L127.361 46.7853L125.082 47.2128L129.242 44.0918Z" fill="#01818D"/>
</g>
<defs>
<clipPath id="clip0_4059_13603">
<rect width="160" height="160" fill="white" transform="translate(0 0.5)"/>
</clipPath>
<clipPath id="clip1_4059_13603">
<rect width="151" height="140" fill="white" transform="translate(2 -1.5)"/>
</clipPath>
</defs>
</svg>
