<svg width="17" height="14" viewBox="0 0 17 14" fill="none" xmlns="http://www.w3.org/2000/svg">
<path d="M3.5 5C4.03125 5 4.5 5.46875 4.5 6V12.9375C4.5 13.4688 4.03125 13.9062 3.5 13.9062H1.5C0.9375 13.9062 0.5 13.4688 0.5 12.9375V5.96875C0.5 5.4375 0.9375 5 1.5 5H3.5ZM16.5 6.09375C16.5 6.84375 16.0938 7.46875 15.5312 7.84375C15.5625 8.03125 15.5938 8.1875 15.5938 8.34375C15.5938 9.0625 15.2188 9.6875 14.6875 10.0625C14.6875 10.1562 14.6875 10.25 14.6875 10.3438C14.6875 11.0625 14.3438 11.6875 13.7812 12.0625C13.7188 13.1562 12.8125 14 11.7188 14H10.0625C8.9375 14 7.84375 13.6562 6.9375 12.9688L5.78125 12.125C5.59375 11.9688 5.46875 11.75 5.46875 11.5C5.46875 11.125 5.8125 10.75 6.25 10.75C6.40625 10.75 6.5625 10.8125 6.6875 10.9062L7.84375 11.7812C8.46875 12.25 9.25 12.5312 10.0625 12.5312H11.7188C12.0312 12.5312 12.3125 12.25 12.3125 11.9375C12.3125 11.8125 12.25 11.7812 12.25 11.625C12.25 10.7812 13.1875 11.0625 13.1875 10.3438C13.1875 10.0625 13 10 13 9.65625C13 8.71875 14.0938 9.125 14.0938 8.34375C14.0938 7.9375 13.7188 7.9375 13.7188 7.4375C13.7188 7.0625 14.0312 6.71875 14.4375 6.6875C14.75 6.6875 15 6.40625 15 6.09375C15 5.78125 14.7188 5.53125 14.375 5.5H10.0938C9.6875 5.5 9.34375 5.21875 9.34375 4.78125C9.34375 4.65625 9.375 4.53125 9.4375 4.40625C10 3.40625 10.25 2.40625 10.25 2.15625C10.25 1.90625 10.0625 1.53125 9.53125 1.53125C8.5 1.53125 9.09375 3.4375 6.6875 5.34375C6.5625 5.46875 6.40625 5.5 6.25 5.5C5.8125 5.5 5.5 5.15625 5.5 4.75C5.5 3.90625 6.375 4.375 7.375 1.84375C7.6875 1.03125 8.09375 0.03125 9.53125 0.03125C10.9062 0.03125 11.75 1.09375 11.75 2.15625C11.75 2.5625 11.5625 3.25 11.2812 4.03125H14.4062C15.5312 4.03125 16.5 4.96875 16.5 6.09375Z" fill="#fff"/>
</svg>
