<svg width="17" height="14" viewBox="0 0 17 14" fill="none" xmlns="http://www.w3.org/2000/svg">
<path d="M12.5 8C12.5 8.5625 12.9688 9 13.5 8.96875H15.5C16.0625 8.96875 16.5 8.53125 16.5 8V1.03125C16.5 0.5 16.0625 0.03125 15.5 0.03125H13.5C12.9688 0.03125 12.5 0.46875 12.5 1.03125V8ZM1.46875 6.1875C0.90625 6.53125 0.5 7.1875 0.5 7.90625C0.5 9.0625 1.46875 10 2.59375 10H5.71875C5.4375 10.75 5.25 11.4688 5.25 11.875C5.25 12.9062 6.09375 14 7.46875 14C9.90625 14 9.0625 11.5625 11.2188 9.84375C11.4062 9.71875 11.5 9.5 11.5 9.28125C11.5 8.875 11.1875 8.53125 10.75 8.53125C10.1562 8.53125 9 9.6875 8.21875 11.625C7.90625 12.5 7.84375 12.5 7.46875 12.5C6.9375 12.5 6.75 12.125 6.75 11.875C6.75 11.625 7 10.625 7.5625 9.5625C7.625 9.46875 7.65625 9.34375 7.65625 9.21875C7.65625 8.8125 7.3125 8.5 6.90625 8.5H2.59375C2.28125 8.5 2 8.21875 2 7.90625C2 7.625 2.25 7.34375 2.5625 7.34375C2.96875 7.3125 3.28125 6.96875 3.28125 6.59375C3.28125 6.09375 2.90625 6.09375 2.90625 5.6875C2.90625 5.40625 3.125 5.15625 3.40625 5.09375C3.65625 5.0625 4 4.8125 4 4.375C4 4 3.8125 3.96875 3.8125 3.6875C3.8125 2.96875 4.75 3.25 4.75 2.40625C4.75 2.25 4.6875 2.21875 4.6875 2.09375C4.6875 1.78125 4.96875 1.5 5.28125 1.5H6.9375C7.75 1.5 8.53125 1.78125 9.15625 2.25L10.3125 3.125C10.4375 3.21875 10.5938 3.28125 10.75 3.28125C11.1875 3.28125 11.5 2.90625 11.5 2.53125C11.5 2.28125 11.4062 2.0625 11.2188 1.90625L10.0625 1.0625C9.15625 0.375 8.0625 0.03125 6.9375 0.03125H5.28125C4.1875 0.03125 3.28125 0.875 3.21875 1.96875C2.65625 2.34375 2.3125 2.96875 2.3125 3.6875C2.3125 3.78125 2.3125 3.875 2.3125 3.96875C1.78125 4.34375 1.40625 4.96875 1.40625 5.6875C1.40625 5.84375 1.4375 6.03125 1.46875 6.1875Z" fill="#01A1B0"/>
</svg>
