<svg width="17" height="16" viewBox="0 0 17 16" fill="none" xmlns="http://www.w3.org/2000/svg">
<path d="M16.3125 13.0312C16.8125 13.9062 16.1875 15 15.1562 15H1.8125C0.78125 15 0.15625 13.9062 0.625 13.0312L7.3125 1.65625C7.59375 1.21875 8.03125 1 8.5 1C8.9375 1 9.375 1.21875 9.65625 1.65625L16.3125 13.0312ZM2.125 13.5H14.8438L8.46875 2.65625L2.125 13.5ZM8.5 10.5625C9.03125 10.5625 9.46875 11 9.46875 11.5312C9.46875 12.0625 9.03125 12.5 8.5 12.5C7.9375 12.5 7.5 12.0625 7.5 11.5312C7.5 11 7.9375 10.5625 8.5 10.5625ZM7.75 5.75C7.75 5.34375 8.0625 5 8.5 5C8.90625 5 9.25 5.34375 9.25 5.75V8.75C9.25 9.1875 8.90625 9.5 8.5 9.5C8.0625 9.5 7.75 9.1875 7.75 8.75V5.75Z" fill="#fff"/>
</svg>
